<svg viewBox="0 0 34 34" xmlns="http://www.w3.org/2000/svg">
  <path fill="#ff1f00" d="M17.089 0.449005C8.094 0.449005 0.800003 7.74201 0.800003 16.739C0.800003 23.936 5.46701 30.042 11.941 32.196C12.755 32.344 13.053 31.842 13.053 31.411C13.053 31.024 13.039 29.999 13.031 28.64C8.5 29.624 7.544 26.456 7.544 26.456C6.803 24.575 5.735 24.073 5.735 24.073C4.256 23.063 5.847 23.083 5.847 23.083C7.482 23.198 8.342 24.763 8.342 24.763C9.795 27.251 12.154 26.533 13.083 26.117C13.231 25.064 13.652 24.346 14.117 23.939C10.5 23.527 6.697 22.13 6.697 15.888C6.697 14.11 7.332 12.656 8.374 11.517C8.207 11.105 7.647 9.449 8.534 7.206C8.534 7.206 9.902 6.768 13.013 8.876C14.312 8.515 15.706 8.334 17.091 8.328C18.475 8.334 19.867 8.515 21.169 8.876C24.279 6.768 25.645 7.206 25.645 7.206C26.534 9.449 25.974 11.105 25.807 11.517C26.85 12.656 27.481 14.11 27.481 15.888C27.481 22.146 23.672 23.523 20.043 23.926C20.628 24.43 21.148 25.424 21.148 26.944C21.148 29.122 21.128 30.878 21.128 31.413C21.128 31.849 21.421 32.354 22.248 32.196C28.716 30.038 33.378 23.936 33.378 16.741C33.379 7.74201 26.086 0.449005 17.089 0.449005Z"/>
</svg>