          <svg viewBox="4 3 27 27" xmlns="http://www.w3.org/2000/svg">
          <path fill="#a0aec0" d="M14.9143 14.7192C14.1 14.7192 13.4571 15.4275 13.4571 16.2917C13.4571 17.1558 14.1143 17.8642 14.9143 17.8642C15.7286 17.8642 16.3714 17.1558 16.3714 16.2917C16.3857 15.4275 15.7286 14.7192 14.9143 14.7192ZM20.1286 14.7192C19.3143 14.7192 18.6714 15.4275 18.6714 16.2917C18.6714 17.1558 19.3286 17.8642 20.1286 17.8642C20.9429 17.8642 21.5857 17.1558 21.5857 16.2917C21.5857 15.4275 20.9429 14.7192 20.1286 14.7192Z"/>
          <path fill="#a0aec0" d="M27.0714 2.83333H7.92857C6.31429 2.83333 5 4.13666 5 5.75166V24.905C5 26.52 6.31429 27.8233 7.92857 27.8233H24.1286L23.3714 25.2025L25.2 26.8883L26.9286 28.475L30 31.1667V5.75166C30 4.13666 28.6857 2.83333 27.0714 2.83333ZM21.5571 21.335C21.5571 21.335 21.0429 20.7258 20.6143 20.1875C22.4857 19.6633 23.2 18.5017 23.2 18.5017C22.6143 18.8842 22.0571 19.1533 21.5571 19.3375C20.8429 19.635 20.1571 19.8333 19.4857 19.9467C18.1143 20.2017 16.8571 20.1308 15.7857 19.9325C14.9714 19.7767 14.2714 19.55 13.6857 19.3233C13.3571 19.1958 13 19.04 12.6429 18.8417C12.6 18.8133 12.5571 18.7992 12.5143 18.7708C12.4857 18.7567 12.4714 18.7425 12.4571 18.7283C12.2 18.5867 12.0571 18.4875 12.0571 18.4875C12.0571 18.4875 12.7429 19.6208 14.5571 20.1592C14.1286 20.6975 13.6 21.335 13.6 21.335C10.4429 21.2358 9.24286 19.1817 9.24286 19.1817C9.24286 14.62 11.3 10.9225 11.3 10.9225C13.3571 9.39249 15.3143 9.43499 15.3143 9.43499L15.4571 9.605C12.8857 10.3417 11.7 11.4608 11.7 11.4608C11.7 11.4608 12.0143 11.2908 12.5429 11.05C14.0714 10.3842 15.2857 10.2 15.7857 10.1575C15.8714 10.1433 15.9429 10.1292 16.0286 10.1292C16.9 10.0158 17.8857 9.9875 18.9143 10.1008C20.2714 10.2567 21.7286 10.6533 23.2143 11.4608C23.2143 11.4608 22.0857 10.3983 19.6571 9.66166L19.8571 9.43499C19.8571 9.43499 21.8143 9.39249 23.8714 10.9225C23.8714 10.9225 25.9286 14.62 25.9286 19.1817C25.9286 19.1817 24.7143 21.2358 21.5571 21.335V21.335Z"/>
          </svg>